<svg xmlns="http://www.w3.org/2000/svg" viewBox="0 0 2490 720">
<rect width="2490" height="720" fill="#000000"/>
<defs>
<pattern id="hatch-T" width="4" height="4" patternUnits="userSpaceOnUse"><path d="M2,0 L2,4" stroke="#ffffff" stroke-width="0.8"/></pattern>
<pattern id="hatch-F" width="4" height="4" patternUnits="userSpaceOnUse"><path d="M0,2 L4,2" stroke="#ffffff" stroke-width="0.8"/></pattern>
<pattern id="hatch-B" width="4" height="4" patternUnits="userSpaceOnUse"><path d="M2,0 L2,4 M0,2 L4,2" stroke="#ffffff" stroke-width="0.8"/></pattern>
</defs>
<line x1="0.0" y1="0.0" x2="0.0" y2="720.0" stroke="#333333" stroke-width="0.4" opacity="0.3"></line>
<line x1="40.0" y1="0.0" x2="40.0" y2="720.0" stroke="#333333" stroke-width="0.4" opacity="0.3"></line>
<line x1="80.0" y1="0.0" x2="80.0" y2="720.0" stroke="#333333" stroke-width="0.4" opacity="0.3"></line>
<line x1="120.0" y1="0.0" x2="120.0" y2="720.0" stroke="#333333" stroke-width="0.4" opacity="0.3"></line>
<line x1="160.0" y1="0.0" x2="160.0" y2="720.0" stroke="#333333" stroke-width="0.4" opacity="0.3"></line>
<line x1="200.0" y1="0.0" x2="200.0" y2="720.0" stroke="#333333" stroke-width="0.4" opacity="0.3"></line>
<line x1="240.0" y1="0.0" x2="240.0" y2="720.0" stroke="#333333" stroke-width="0.4" opacity="0.3"></line>
<line x1="280.0" y1="0.0" x2="280.0" y2="720.0" stroke="#333333" stroke-width="0.4" opacity="0.3"></line>
<line x1="320.0" y1="0.0" x2="320.0" y2="720.0" stroke="#333333" stroke-width="0.4" opacity="0.3"></line>
<line x1="360.0" y1="0.0" x2="360.0" y2="720.0" stroke="#333333" stroke-width="0.4" opacity="0.3"></line>
<line x1="400.0" y1="0.0" x2="400.0" y2="720.0" stroke="#333333" stroke-width="0.4" opacity="0.3"></line>
<line x1="440.0" y1="0.0" x2="440.0" y2="720.0" stroke="#333333" stroke-width="0.4" opacity="0.3"></line>
<line x1="480.0" y1="0.0" x2="480.0" y2="720.0" stroke="#333333" stroke-width="0.4" opacity="0.3"></line>
<line x1="520.0" y1="0.0" x2="520.0" y2="720.0" stroke="#333333" stroke-width="0.4" opacity="0.3"></line>
<line x1="560.0" y1="0.0" x2="560.0" y2="720.0" stroke="#333333" stroke-width="0.4" opacity="0.3"></line>
<line x1="600.0" y1="0.0" x2="600.0" y2="720.0" stroke="#333333" stroke-width="0.4" opacity="0.3"></line>
<line x1="640.0" y1="0.0" x2="640.0" y2="720.0" stroke="#333333" stroke-width="0.4" opacity="0.3"></line>
<line x1="680.0" y1="0.0" x2="680.0" y2="720.0" stroke="#333333" stroke-width="0.4" opacity="0.3"></line>
<line x1="720.0" y1="0.0" x2="720.0" y2="720.0" stroke="#333333" stroke-width="0.4" opacity="0.3"></line>
<line x1="760.0" y1="0.0" x2="760.0" y2="720.0" stroke="#333333" stroke-width="0.4" opacity="0.3"></line>
<line x1="800.0" y1="0.0" x2="800.0" y2="720.0" stroke="#333333" stroke-width="0.4" opacity="0.3"></line>
<line x1="840.0" y1="0.0" x2="840.0" y2="720.0" stroke="#333333" stroke-width="0.4" opacity="0.3"></line>
<line x1="880.0" y1="0.0" x2="880.0" y2="720.0" stroke="#333333" stroke-width="0.4" opacity="0.3"></line>
<line x1="920.0" y1="0.0" x2="920.0" y2="720.0" stroke="#333333" stroke-width="0.4" opacity="0.3"></line>
<line x1="960.0" y1="0.0" x2="960.0" y2="720.0" stroke="#333333" stroke-width="0.4" opacity="0.3"></line>
<line x1="1000.0" y1="0.0" x2="1000.0" y2="720.0" stroke="#333333" stroke-width="0.4" opacity="0.3"></line>
<line x1="1040.0" y1="0.0" x2="1040.0" y2="720.0" stroke="#333333" stroke-width="0.4" opacity="0.3"></line>
<line x1="1080.0" y1="0.0" x2="1080.0" y2="720.0" stroke="#333333" stroke-width="0.4" opacity="0.3"></line>
<line x1="1120.0" y1="0.0" x2="1120.0" y2="720.0" stroke="#333333" stroke-width="0.4" opacity="0.3"></line>
<line x1="1160.0" y1="0.0" x2="1160.0" y2="720.0" stroke="#333333" stroke-width="0.4" opacity="0.3"></line>
<line x1="1200.0" y1="0.0" x2="1200.0" y2="720.0" stroke="#333333" stroke-width="0.4" opacity="0.3"></line>
<line x1="1240.0" y1="0.0" x2="1240.0" y2="720.0" stroke="#333333" stroke-width="0.4" opacity="0.3"></line>
<line x1="1280.0" y1="0.0" x2="1280.0" y2="720.0" stroke="#333333" stroke-width="0.4" opacity="0.3"></line>
<line x1="1320.0" y1="0.0" x2="1320.0" y2="720.0" stroke="#333333" stroke-width="0.4" opacity="0.3"></line>
<line x1="1360.0" y1="0.0" x2="1360.0" y2="720.0" stroke="#333333" stroke-width="0.4" opacity="0.3"></line>
<line x1="1400.0" y1="0.0" x2="1400.0" y2="720.0" stroke="#333333" stroke-width="0.4" opacity="0.3"></line>
<line x1="1440.0" y1="0.0" x2="1440.0" y2="720.0" stroke="#333333" stroke-width="0.4" opacity="0.3"></line>
<line x1="1480.0" y1="0.0" x2="1480.0" y2="720.0" stroke="#333333" stroke-width="0.4" opacity="0.3"></line>
<line x1="1520.0" y1="0.0" x2="1520.0" y2="720.0" stroke="#333333" stroke-width="0.4" opacity="0.3"></line>
<line x1="1560.0" y1="0.0" x2="1560.0" y2="720.0" stroke="#333333" stroke-width="0.4" opacity="0.3"></line>
<line x1="1600.0" y1="0.0" x2="1600.0" y2="720.0" stroke="#333333" stroke-width="0.4" opacity="0.3"></line>
<line x1="1640.0" y1="0.0" x2="1640.0" y2="720.0" stroke="#333333" stroke-width="0.4" opacity="0.3"></line>
<line x1="1680.0" y1="0.0" x2="1680.0" y2="720.0" stroke="#333333" stroke-width="0.4" opacity="0.3"></line>
<line x1="1720.0" y1="0.0" x2="1720.0" y2="720.0" stroke="#333333" stroke-width="0.4" opacity="0.3"></line>
<line x1="1760.0" y1="0.0" x2="1760.0" y2="720.0" stroke="#333333" stroke-width="0.4" opacity="0.3"></line>
<line x1="1800.0" y1="0.0" x2="1800.0" y2="720.0" stroke="#333333" stroke-width="0.4" opacity="0.3"></line>
<line x1="1840.0" y1="0.0" x2="1840.0" y2="720.0" stroke="#333333" stroke-width="0.4" opacity="0.3"></line>
<line x1="1880.0" y1="0.0" x2="1880.0" y2="720.0" stroke="#333333" stroke-width="0.4" opacity="0.3"></line>
<line x1="1920.0" y1="0.0" x2="1920.0" y2="720.0" stroke="#333333" stroke-width="0.4" opacity="0.3"></line>
<line x1="1960.0" y1="0.0" x2="1960.0" y2="720.0" stroke="#333333" stroke-width="0.4" opacity="0.3"></line>
<line x1="2000.0" y1="0.0" x2="2000.0" y2="720.0" stroke="#333333" stroke-width="0.4" opacity="0.3"></line>
<line x1="2040.0" y1="0.0" x2="2040.0" y2="720.0" stroke="#333333" stroke-width="0.4" opacity="0.3"></line>
<line x1="2080.0" y1="0.0" x2="2080.0" y2="720.0" stroke="#333333" stroke-width="0.4" opacity="0.3"></line>
<line x1="2120.0" y1="0.0" x2="2120.0" y2="720.0" stroke="#333333" stroke-width="0.4" opacity="0.3"></line>
<line x1="2160.0" y1="0.0" x2="2160.0" y2="720.0" stroke="#333333" stroke-width="0.4" opacity="0.3"></line>
<line x1="2200.0" y1="0.0" x2="2200.0" y2="720.0" stroke="#333333" stroke-width="0.4" opacity="0.3"></line>
<line x1="2240.0" y1="0.0" x2="2240.0" y2="720.0" stroke="#333333" stroke-width="0.4" opacity="0.3"></line>
<line x1="2280.0" y1="0.0" x2="2280.0" y2="720.0" stroke="#333333" stroke-width="0.4" opacity="0.3"></line>
<line x1="2320.0" y1="0.0" x2="2320.0" y2="720.0" stroke="#333333" stroke-width="0.4" opacity="0.3"></line>
<line x1="2360.0" y1="0.0" x2="2360.0" y2="720.0" stroke="#333333" stroke-width="0.4" opacity="0.3"></line>
<line x1="2400.0" y1="0.0" x2="2400.0" y2="720.0" stroke="#333333" stroke-width="0.4" opacity="0.3"></line>
<line x1="2440.0" y1="0.0" x2="2440.0" y2="720.0" stroke="#333333" stroke-width="0.4" opacity="0.3"></line>
<line x1="2480.0" y1="0.0" x2="2480.0" y2="720.0" stroke="#333333" stroke-width="0.4" opacity="0.3"></line>
<line x1="0.0" y1="0.0" x2="2490.0" y2="0.0" stroke="#333333" stroke-width="0.4" opacity="0.3"></line>
<line x1="0.0" y1="40.0" x2="2490.0" y2="40.0" stroke="#333333" stroke-width="0.4" opacity="0.3"></line>
<line x1="0.0" y1="80.0" x2="2490.0" y2="80.0" stroke="#333333" stroke-width="0.4" opacity="0.3"></line>
<line x1="0.0" y1="120.0" x2="2490.0" y2="120.0" stroke="#333333" stroke-width="0.4" opacity="0.3"></line>
<line x1="0.0" y1="160.0" x2="2490.0" y2="160.0" stroke="#333333" stroke-width="0.4" opacity="0.3"></line>
<line x1="0.0" y1="200.0" x2="2490.0" y2="200.0" stroke="#333333" stroke-width="0.4" opacity="0.3"></line>
<line x1="0.0" y1="240.0" x2="2490.0" y2="240.0" stroke="#333333" stroke-width="0.4" opacity="0.3"></line>
<line x1="0.0" y1="280.0" x2="2490.0" y2="280.0" stroke="#333333" stroke-width="0.4" opacity="0.3"></line>
<line x1="0.0" y1="320.0" x2="2490.0" y2="320.0" stroke="#333333" stroke-width="0.4" opacity="0.3"></line>
<line x1="0.0" y1="360.0" x2="2490.0" y2="360.0" stroke="#333333" stroke-width="0.4" opacity="0.3"></line>
<line x1="0.0" y1="400.0" x2="2490.0" y2="400.0" stroke="#333333" stroke-width="0.4" opacity="0.3"></line>
<line x1="0.0" y1="440.0" x2="2490.0" y2="440.0" stroke="#333333" stroke-width="0.4" opacity="0.3"></line>
<line x1="0.0" y1="480.0" x2="2490.0" y2="480.0" stroke="#333333" stroke-width="0.4" opacity="0.3"></line>
<line x1="0.0" y1="520.0" x2="2490.0" y2="520.0" stroke="#333333" stroke-width="0.4" opacity="0.3"></line>
<line x1="0.0" y1="560.0" x2="2490.0" y2="560.0" stroke="#333333" stroke-width="0.4" opacity="0.3"></line>
<line x1="0.0" y1="600.0" x2="2490.0" y2="600.0" stroke="#333333" stroke-width="0.4" opacity="0.3"></line>
<line x1="0.0" y1="640.0" x2="2490.0" y2="640.0" stroke="#333333" stroke-width="0.4" opacity="0.3"></line>
<line x1="0.0" y1="680.0" x2="2490.0" y2="680.0" stroke="#333333" stroke-width="0.4" opacity="0.3"></line>
<text x="1245.0" y="26.0" fill="#ffffff" font-size="13" text-anchor="middle" font-family="monospace" font-weight="bold">carrier 09b5cf43</text>
<text x="1245.0" y="41.0" fill="#ffffff" font-size="7" text-anchor="middle" font-family="monospace">⊢∈⊤≻∈⊤∈⊤⋈∈≺⊤⊥⊞∋⋈∋⊤∋⊙⊤⊡⊤∋⊣</text>
<text x="66.0" y="190.0" fill="#ffffff" font-size="7" text-anchor="start" font-family="monospace">T-lane</text>
<text x="66.0" y="135.0" fill="#ffffff" font-size="7" text-anchor="start" font-family="monospace">T[d1]</text>
<text x="66.0" y="80.0" fill="#ffffff" font-size="7" text-anchor="start" font-family="monospace">T[d2]</text>
<text x="66.0" y="25.0" fill="#ffffff" font-size="7" text-anchor="start" font-family="monospace">T[d3]</text>
<text x="66.0" y="-30.0" fill="#ffffff" font-size="7" text-anchor="start" font-family="monospace">T[d4]</text>
<text x="66.0" y="470.0" fill="#ffffff" font-size="7" text-anchor="start" font-family="monospace">F-lane</text>
<text x="66.0" y="525.0" fill="#ffffff" font-size="7" text-anchor="start" font-family="monospace">F[d1]</text>
<text x="66.0" y="580.0" fill="#ffffff" font-size="7" text-anchor="start" font-family="monospace">F[d2]</text>
<text x="66.0" y="635.0" fill="#ffffff" font-size="7" text-anchor="start" font-family="monospace">F[d3]</text>
<text x="66.0" y="690.0" fill="#ffffff" font-size="7" text-anchor="start" font-family="monospace">F[d4]</text>
<text x="66.0" y="330.0" fill="#ffffff" font-size="7" text-anchor="start" font-family="monospace">main</text>
<text x="66.0" y="258.0" fill="#ffffff" font-size="6" text-anchor="start" font-family="monospace">I-lane</text>
<text x="140.0" y="258.0" fill="#ffffff" font-size="4" text-anchor="start" font-family="monospace">≤_i (information: x⊆y)</text>
<line x1="66.0" y1="274.0" x2="2470.0" y2="274.0" stroke="#ffffff" stroke-width="0.6" opacity="0.5"></line>
<text x="66.0" y="398.0" fill="#ffffff" font-size="6" text-anchor="start" font-family="monospace">C-lane</text>
<text x="140.0" y="398.0" fill="#ffffff" font-size="4" text-anchor="start" font-family="monospace">≤_c (constructivity: T,F↑ t,f↓)</text>
<line x1="66.0" y1="414.0" x2="2470.0" y2="414.0" stroke="#ffffff" stroke-width="0.6" opacity="0.5"></line>
<line x1="2088.5" y1="40.0" x2="2088.5" y2="680.0" stroke="#ffffff" stroke-width="1.0" opacity="1.0" stroke-dasharray="4,3"></line>
<line x1="2093.5" y1="40.0" x2="2093.5" y2="680.0" stroke="#ffffff" stroke-width="1.0" opacity="1.0" stroke-dasharray="4,3"></line>
<text x="2091.0" y="40.0" fill="#ffffff" font-size="8" text-anchor="middle" font-family="monospace">×</text>
<text x="2091.0" y="680.0" fill="#ffffff" font-size="8" text-anchor="middle" font-family="monospace">×</text>
<text x="2091.0" y="33.0" fill="#ffffff" font-size="6" text-anchor="middle" font-family="monospace">IFIX</text>
<line x1="963.0" y1="310.0" x2="963.0" y2="292.0" stroke="#ffffff" stroke-width="0.6" opacity="0.8" stroke-dasharray="3,3"></line>
<line x1="963.0" y1="292.0" x2="1433.0" y2="292.0" stroke="#ffffff" stroke-width="0.6" opacity="0.8" stroke-dasharray="3,3"></line>
<line x1="1433.0" y1="292.0" x2="1433.0" y2="310.0" stroke="#ffffff" stroke-width="0.6" opacity="0.8" stroke-dasharray="3,3"></line>
<circle cx="1198.0" cy="292.0" r="6" fill="#000000" stroke="#ffffff" stroke-width="0.8"></circle>
<text x="1198.0" y="295.0" fill="#ffffff" font-size="7" text-anchor="middle" font-family="monospace">1</text>
<line x1="681.0" y1="310.0" x2="681.0" y2="292.0" stroke="#ffffff" stroke-width="0.6" opacity="0.8" stroke-dasharray="3,3"></line>
<line x1="681.0" y1="292.0" x2="1621.0" y2="292.0" stroke="#ffffff" stroke-width="0.6" opacity="0.8" stroke-dasharray="3,3"></line>
<line x1="1621.0" y1="292.0" x2="1621.0" y2="310.0" stroke="#ffffff" stroke-width="0.6" opacity="0.8" stroke-dasharray="3,3"></line>
<circle cx="1151.0" cy="292.0" r="6" fill="#000000" stroke="#ffffff" stroke-width="0.8"></circle>
<text x="1151.0" y="295.0" fill="#ffffff" font-size="7" text-anchor="middle" font-family="monospace">2</text>
<line x1="493.0" y1="310.0" x2="493.0" y2="292.0" stroke="#ffffff" stroke-width="0.6" opacity="0.8" stroke-dasharray="3,3"></line>
<line x1="493.0" y1="292.0" x2="1809.0" y2="292.0" stroke="#ffffff" stroke-width="0.6" opacity="0.8" stroke-dasharray="3,3"></line>
<line x1="1809.0" y1="292.0" x2="1809.0" y2="310.0" stroke="#ffffff" stroke-width="0.6" opacity="0.8" stroke-dasharray="3,3"></line>
<circle cx="1151.0" cy="292.0" r="6" fill="#000000" stroke="#ffffff" stroke-width="0.8"></circle>
<text x="1151.0" y="295.0" fill="#ffffff" font-size="7" text-anchor="middle" font-family="monospace">3</text>
<line x1="211.0" y1="310.0" x2="211.0" y2="292.0" stroke="#ffffff" stroke-width="0.6" opacity="0.8" stroke-dasharray="3,3"></line>
<line x1="211.0" y1="292.0" x2="2279.0" y2="292.0" stroke="#ffffff" stroke-width="0.6" opacity="0.8" stroke-dasharray="3,3"></line>
<line x1="2279.0" y1="292.0" x2="2279.0" y2="310.0" stroke="#ffffff" stroke-width="0.6" opacity="0.8" stroke-dasharray="3,3"></line>
<circle cx="1245.0" cy="292.0" r="6" fill="#000000" stroke="#ffffff" stroke-width="0.8"></circle>
<text x="1245.0" y="295.0" fill="#ffffff" font-size="7" text-anchor="middle" font-family="monospace">4</text>
<line x1="971.2" y1="307.4" x2="1046.1" y2="100.1" stroke="#ffffff" stroke-width="0.5" opacity="1.0"></line>
<polygon points="1048.8,92.6 1049.1,101.2 1043.1,99.0" fill="#ffffff"></polygon>
<circle cx="1008.6" cy="203.8" r="5" fill="#000000" stroke="#ffffff" stroke-width="0.6"></circle>
<text x="1008.6" y="206.8" fill="#ffffff" font-size="7" text-anchor="middle" font-family="monospace">∈</text>
<text x="1008.6" y="195.8" fill="#ffffff" font-size="6" text-anchor="middle" font-family="monospace">↓</text>
<line x1="1081.0" y1="70.0" x2="1119.0" y2="70.0" stroke="#ffffff" stroke-width="0.5" opacity="1.0" stroke-dasharray="6,4"></line>
<polygon points="1127.0,70.0 1119.0,73.2 1119.0,66.8" fill="#ffffff"></polygon>
<text x="1100.0" y="62.0" fill="#ffffff" font-size="6" text-anchor="middle" font-family="monospace">↓→↑↓</text>
<line x1="1168.6" y1="86.3" x2="1409.5" y2="308.3" stroke="#ffffff" stroke-width="0.5" opacity="1.0"></line>
<polygon points="1415.4,313.7 1407.3,310.7 1411.6,306.0" fill="#ffffff"></polygon>
<circle cx="1289.1" cy="197.3" r="5" fill="#000000" stroke="#ffffff" stroke-width="0.6"></circle>
<text x="1289.1" y="200.3" fill="#ffffff" font-size="7" text-anchor="middle" font-family="monospace">⊤</text>
<text x="1289.1" y="189.3" fill="#ffffff" font-size="6" text-anchor="middle" font-family="monospace">↑↓→↑</text>
<line x1="978.9" y1="348.0" x2="1223.8" y2="626.0" stroke="#ffffff" stroke-width="0.5" opacity="1.0"></line>
<polygon points="1229.1,632.0 1221.4,628.1 1226.2,623.9" fill="#ffffff"></polygon>
<circle cx="1101.4" cy="487.0" r="5" fill="#000000" stroke="#ffffff" stroke-width="0.6"></circle>
<text x="1101.4" y="490.0" fill="#ffffff" font-size="7" text-anchor="middle" font-family="monospace">∈</text>
<text x="1101.4" y="479.0" fill="#ffffff" font-size="6" text-anchor="middle" font-family="monospace">↑↓</text>
<line x1="1269.0" y1="650.0" x2="1307.0" y2="650.0" stroke="#ffffff" stroke-width="0.5" opacity="1.0"></line>
<polygon points="1315.0,650.0 1307.0,653.2 1307.0,646.8" fill="#ffffff"></polygon>
<circle cx="1288.0" cy="650.0" r="5" fill="#000000" stroke="#ffffff" stroke-width="0.6"></circle>
<text x="1288.0" y="653.0" fill="#ffffff" font-size="7" text-anchor="middle" font-family="monospace">⊥</text>
<text x="1288.0" y="642.0" fill="#ffffff" font-size="6" text-anchor="middle" font-family="monospace">↑↓→↑↓</text>
<polyline points="1349.6,628.1 1344.2,618.2 1354.1,612.7 1348.7,602.8 1358.6,597.4 1353.2,587.5 1363.1,582.0 1357.7,572.1 1367.6,566.7 1362.2,556.8 1372.1,551.3 1366.7,541.4 1376.7,536.0 1371.2,526.1 1381.2,520.6 1375.7,510.7 1385.7,505.3 1380.3,495.4 1390.2,489.9 1384.8,480.0 1394.7,474.6 1389.3,464.7 1399.2,459.2 1393.8,449.3 1403.7,443.9 1398.3,434.0 1408.2,428.5 1402.8,418.6 1412.7,413.2 1407.3,403.3 1417.2,397.8 1411.8,387.9 1421.8,382.5 1416.3,372.5 1426.3,367.1 1424.0,360.7" fill="none" stroke="#ffffff" stroke-width="0.5"></polyline>
<polygon points="1426.2,353.0 1427.1,361.6 1420.9,359.8" fill="#ffffff"></polygon>
<text x="1384.9" y="485.8" fill="#ffffff" font-size="6" text-anchor="middle" font-family="monospace">↑↓→↑</text>
<line x1="689.2" y1="307.4" x2="764.1" y2="100.1" stroke="#ffffff" stroke-width="0.5" opacity="1.0"></line>
<polygon points="766.8,92.6 767.1,101.2 761.1,99.0" fill="#ffffff"></polygon>
<circle cx="726.6" cy="203.8" r="5" fill="#000000" stroke="#ffffff" stroke-width="0.6"></circle>
<text x="726.6" y="206.8" fill="#ffffff" font-size="7" text-anchor="middle" font-family="monospace">∈</text>
<text x="726.6" y="195.8" fill="#ffffff" font-size="6" text-anchor="middle" font-family="monospace">↑→↑</text>
<line x1="799.0" y1="70.0" x2="837.0" y2="70.0" stroke="#ffffff" stroke-width="0.5" opacity="1.0"></line>
<polygon points="845.0,70.0 837.0,73.2 837.0,66.8" fill="#ffffff"></polygon>
<circle cx="818.0" cy="70.0" r="5" fill="#000000" stroke="#ffffff" stroke-width="0.6"></circle>
<text x="818.0" y="73.0" fill="#ffffff" font-size="7" text-anchor="middle" font-family="monospace">⊤</text>
<text x="818.0" y="62.0" fill="#ffffff" font-size="6" text-anchor="middle" font-family="monospace">↑→</text>
<line x1="893.0" y1="68.4" x2="1495.0" y2="68.4" stroke="#ffffff" stroke-width="0.5" opacity="1.0"></line>
<line x1="893.0" y1="71.6" x2="1495.0" y2="71.6" stroke="#ffffff" stroke-width="0.5" opacity="1.0"></line>
<polygon points="1503.0,70.0 1495.0,73.2 1495.0,66.8" fill="#ffffff"></polygon>
<line x1="1536.7" y1="92.0" x2="1611.6" y2="299.4" stroke="#ffffff" stroke-width="0.5" opacity="1.0"></line>
<line x1="1533.7" y1="93.1" x2="1608.6" y2="300.5" stroke="#ffffff" stroke-width="0.5" opacity="1.0"></line>
<polygon points="1612.8,307.4 1607.1,301.0 1613.1,298.8" fill="#ffffff"></polygon>
<line x1="705.0" y1="330.0" x2="1589.0" y2="330.0" stroke="#ffffff" stroke-width="0.5" opacity="1.0"></line>
<polygon points="1597.0,330.0 1589.0,333.2 1589.0,326.8" fill="#ffffff"></polygon>
<circle cx="1147.0" cy="330.0" r="5" fill="#000000" stroke="#ffffff" stroke-width="0.6"></circle>
<text x="1147.0" y="333.0" fill="#ffffff" font-size="7" text-anchor="middle" font-family="monospace">∈</text>
<text x="1147.0" y="322.0" fill="#ffffff" font-size="6" text-anchor="middle" font-family="monospace">↑→</text>
<line x1="501.4" y1="307.5" x2="575.7" y2="110.0" stroke="#ffffff" stroke-width="1.0" opacity="1.0"></line>
<polygon points="578.6,102.5 578.7,111.1 572.7,108.8" fill="#ffffff"></polygon>
<circle cx="538.6" cy="208.7" r="5" fill="#000000" stroke="#ffffff" stroke-width="0.6"></circle>
<text x="538.6" y="211.7" fill="#ffffff" font-size="7" text-anchor="middle" font-family="monospace">∈</text>
<text x="538.6" y="200.7" fill="#ffffff" font-size="6" text-anchor="middle" font-family="monospace">↑→↑</text>
<line x1="611.0" y1="80.0" x2="1683.0" y2="80.0" stroke="#ffffff" stroke-width="1.0" opacity="1.0"></line>
<polygon points="1691.0,80.0 1683.0,83.2 1683.0,76.8" fill="#ffffff"></polygon>
<circle cx="1147.0" cy="80.0" r="5" fill="#000000" stroke="#ffffff" stroke-width="0.6"></circle>
<text x="1147.0" y="83.0" fill="#ffffff" font-size="7" text-anchor="middle" font-family="monospace">⊤</text>
<text x="1147.0" y="72.0" fill="#ffffff" font-size="6" text-anchor="middle" font-family="monospace">↑→↑</text>
<line x1="1723.4" y1="102.5" x2="1797.7" y2="300.0" stroke="#ffffff" stroke-width="1.0" opacity="1.0"></line>
<polygon points="1800.6,307.5 1794.7,301.2 1800.7,298.9" fill="#ffffff"></polygon>
<circle cx="1760.6" cy="201.3" r="5" fill="#000000" stroke="#ffffff" stroke-width="0.6"></circle>
<text x="1760.6" y="204.3" fill="#ffffff" font-size="7" text-anchor="middle" font-family="monospace">⊤</text>
<text x="1760.6" y="193.3" fill="#ffffff" font-size="6" text-anchor="middle" font-family="monospace">↑→↑</text>
<line x1="517.0" y1="330.0" x2="1777.0" y2="330.0" stroke="#ffffff" stroke-width="1.0" opacity="1.0"></line>
<polygon points="1785.0,330.0 1777.0,333.2 1777.0,326.8" fill="#ffffff"></polygon>
<circle cx="1147.0" cy="330.0" r="5" fill="#000000" stroke="#ffffff" stroke-width="0.6"></circle>
<text x="1147.0" y="333.0" fill="#ffffff" font-size="7" text-anchor="middle" font-family="monospace">∈</text>
<text x="1147.0" y="322.0" fill="#ffffff" font-size="6" text-anchor="middle" font-family="monospace">↑→↑</text>
<line x1="221.4" y1="308.4" x2="291.1" y2="163.8" stroke="#ffffff" stroke-width="1.5" opacity="1.0"></line>
<polygon points="294.6,156.6 294.0,165.2 288.2,162.4" fill="#ffffff"></polygon>
<circle cx="256.3" cy="236.1" r="5" fill="#000000" stroke="#ffffff" stroke-width="0.6"></circle>
<text x="256.3" y="239.1" fill="#ffffff" font-size="7" text-anchor="middle" font-family="monospace">∈</text>
<text x="256.3" y="228.1" fill="#ffffff" font-size="6" text-anchor="middle" font-family="monospace">↑</text>
<line x1="329.0" y1="135.0" x2="367.0" y2="135.0" stroke="#ffffff" stroke-width="1.5" opacity="1.0"></line>
<polygon points="375.0,135.0 367.0,138.2 367.0,131.8" fill="#ffffff"></polygon>
<circle cx="348.0" cy="135.0" r="5" fill="#000000" stroke="#ffffff" stroke-width="0.6"></circle>
<text x="348.0" y="138.0" fill="#ffffff" font-size="7" text-anchor="middle" font-family="monospace">⊤</text>
<text x="348.0" y="127.0" fill="#ffffff" font-size="6" text-anchor="middle" font-family="monospace">↑→↑</text>
<line x1="423.0" y1="135.0" x2="1871.0" y2="135.0" stroke="#ffffff" stroke-width="2.5" opacity="1.0"></line>
<polygon points="1879.0,135.0 1871.0,138.2 1871.0,131.8" fill="#ffffff"></polygon>
<text x="1147.0" y="127.0" fill="#ffffff" font-size="6" text-anchor="middle" font-family="monospace">↑→↑</text>
<line x1="1935.0" y1="135.0" x2="1973.0" y2="135.0" stroke="#ffffff" stroke-width="1.5" opacity="1.0"></line>
<polygon points="1927.0,135.0 1935.0,131.8 1935.0,138.2" fill="#ffffff"></polygon>
<circle cx="1954.0" cy="135.0" r="5" fill="#000000" stroke="#ffffff" stroke-width="0.6"></circle>
<text x="1954.0" y="138.0" fill="#ffffff" font-size="7" text-anchor="middle" font-family="monospace">←</text>
<text x="1954.0" y="127.0" fill="#ffffff" font-size="6" text-anchor="middle" font-family="monospace">↑→↑</text>
<line x1="2021.0" y1="135.0" x2="2059.0" y2="135.0" stroke="#ffffff" stroke-width="1.5" opacity="1.0"></line>
<polygon points="2067.0,135.0 2059.0,138.2 2059.0,131.8" fill="#ffffff"></polygon>
<circle cx="2040.0" cy="135.0" r="5" fill="#000000" stroke="#ffffff" stroke-width="0.6"></circle>
<text x="2040.0" y="138.0" fill="#ffffff" font-size="7" text-anchor="middle" font-family="monospace">⊤</text>
<text x="2040.0" y="127.0" fill="#ffffff" font-size="6" text-anchor="middle" font-family="monospace">↑→↑</text>
<line x1="2115.0" y1="135.0" x2="2153.0" y2="135.0" stroke="#ffffff" stroke-width="1.5" opacity="1.0" stroke-dasharray="2,2"></line>
<polygon points="2161.0,135.0 2153.0,138.2 2153.0,131.8" fill="#ffffff"></polygon>
<text x="2134.0" y="127.0" fill="#ffffff" font-size="6" text-anchor="middle" font-family="monospace">↑→↑</text>
<line x1="2195.4" y1="156.6" x2="2265.1" y2="301.2" stroke="#ffffff" stroke-width="1.5" opacity="1.0"></line>
<polygon points="2268.6,308.4 2262.2,302.6 2268.0,299.8" fill="#ffffff"></polygon>
<circle cx="2230.3" cy="228.9" r="5" fill="#000000" stroke="#ffffff" stroke-width="0.6"></circle>
<text x="2230.3" y="231.9" fill="#ffffff" font-size="7" text-anchor="middle" font-family="monospace">⊤</text>
<text x="2230.3" y="220.9" fill="#ffffff" font-size="6" text-anchor="middle" font-family="monospace">↑→↑</text>
<line x1="235.0" y1="330.0" x2="2247.0" y2="330.0" stroke="#ffffff" stroke-width="1.5" opacity="1.0"></line>
<polygon points="2255.0,330.0 2247.0,333.2 2247.0,326.8" fill="#ffffff"></polygon>
<circle cx="1241.0" cy="330.0" r="5" fill="#000000" stroke="#ffffff" stroke-width="0.6"></circle>
<text x="1241.0" y="333.0" fill="#ffffff" font-size="7" text-anchor="middle" font-family="monospace">∈</text>
<text x="1241.0" y="322.0" fill="#ffffff" font-size="6" text-anchor="middle" font-family="monospace">↑</text>
<line x1="141.0" y1="330.0" x2="179.0" y2="330.0" stroke="#ffffff" stroke-width="2.0" opacity="1.0"></line>
<polyline points="187.0,330.0 179.0,333.2 179.0,326.8" fill="none" stroke="#ffffff" stroke-width="1.0"></polyline>
<line x1="1457.0" y1="330.0" x2="1589.0" y2="330.0" stroke="#ffffff" stroke-width="0.5" opacity="1.0"></line>
<polygon points="1597.0,330.0 1589.0,333.2 1589.0,326.8" fill="#ffffff"></polygon>
<circle cx="1523.0" cy="330.0" r="5" fill="#000000" stroke="#ffffff" stroke-width="0.6"></circle>
<text x="1523.0" y="333.0" fill="#ffffff" font-size="7" text-anchor="middle" font-family="monospace">∋</text>
<text x="1523.0" y="322.0" fill="#ffffff" font-size="6" text-anchor="middle" font-family="monospace">↑→</text>
<line x1="1645.0" y1="330.0" x2="1777.0" y2="330.0" stroke="#ffffff" stroke-width="0.5" opacity="1.0"></line>
<polygon points="1785.0,330.0 1777.0,333.2 1777.0,326.8" fill="#ffffff"></polygon>
<circle cx="1711.0" cy="330.0" r="5" fill="#000000" stroke="#ffffff" stroke-width="0.6"></circle>
<text x="1711.0" y="333.0" fill="#ffffff" font-size="7" text-anchor="middle" font-family="monospace">∋</text>
<text x="1711.0" y="322.0" fill="#ffffff" font-size="6" text-anchor="middle" font-family="monospace">↑</text>
<line x1="1833.0" y1="330.0" x2="2247.0" y2="330.0" stroke="#ffffff" stroke-width="1.0" opacity="1.0"></line>
<polygon points="2255.0,330.0 2247.0,333.2 2247.0,326.8" fill="#ffffff"></polygon>
<circle cx="2040.0" cy="330.0" r="5" fill="#000000" stroke="#ffffff" stroke-width="0.6"></circle>
<text x="2040.0" y="333.0" fill="#ffffff" font-size="7" text-anchor="middle" font-family="monospace">∋</text>
<text x="2040.0" y="322.0" fill="#ffffff" font-size="6" text-anchor="middle" font-family="monospace">↑→↑</text>
<line x1="2303.0" y1="330.0" x2="2341.0" y2="330.0" stroke="#ffffff" stroke-width="1.5" opacity="1.0"></line>
<polygon points="2349.0,330.0 2341.0,333.2 2341.0,326.8" fill="#ffffff"></polygon>
<circle cx="2322.0" cy="330.0" r="5" fill="#000000" stroke="#ffffff" stroke-width="0.6"></circle>
<text x="2322.0" y="333.0" fill="#ffffff" font-size="7" text-anchor="middle" font-family="monospace">∋</text>
<text x="2322.0" y="322.0" fill="#ffffff" font-size="6" text-anchor="middle" font-family="monospace">↑→↑</text>
<circle fill="none" stroke="#ffffff" stroke-width="1.3" cx="117.0" cy="330.0" r="20.0"></circle>
<circle cx="93.0" cy="330.0" r="2.5" fill="#000000" stroke="#ffffff" stroke-width="0.8"></circle>
<circle cx="141.0" cy="330.0" r="2.5" fill="#ffffff"></circle>
<text x="117.0" y="304.0" fill="#ffffff" font-size="11" text-anchor="middle" font-family="monospace" font-weight="bold">⊢</text>
<text x="117.0" y="362.0" fill="#ffffff" font-size="5" text-anchor="middle" font-family="monospace">VINIT</text>
<polygon fill="none" stroke="#ffffff" stroke-width="1.3" points="211.0,310.0 231.0,330 211.0,350.0 191.0,330"></polygon>
<circle cx="187.0" cy="330.0" r="2.5" fill="#000000" stroke="#ffffff" stroke-width="0.8"></circle>
<circle cx="235.0" cy="330.0" r="2.5" fill="#ffffff"></circle>
<text x="211.0" y="304.0" fill="#ffffff" font-size="11" text-anchor="middle" font-family="monospace" font-weight="bold">∈</text>
<text x="211.0" y="362.0" fill="#ffffff" font-size="5" text-anchor="middle" font-family="monospace">FSPLIT</text>
<polygon fill="none" stroke="#ffffff" stroke-width="1.3" points="322.3,145.0 305.0,155.0 287.7,145.0 287.7,125.0 305.0,115.0 322.3,125.0"></polygon>
<circle cx="305.0" cy="135.0" r="8" fill="url(#hatch-T)" stroke="#ffffff" stroke-width="0.6"></circle>
<circle cx="281.0" cy="135.0" r="2.5" fill="#000000" stroke="#ffffff" stroke-width="0.8"></circle>
<circle cx="329.0" cy="135.0" r="2.5" fill="#ffffff"></circle>
<text x="305.0" y="109.0" fill="#ffffff" font-size="11" text-anchor="middle" font-family="monospace" font-weight="bold">⊤</text>
<text x="305.0" y="167.0" fill="#ffffff" font-size="5" text-anchor="middle" font-family="monospace">EVALT</text>
<circle fill="none" stroke="#ffffff" stroke-width="1.3" cx="399.0" cy="135.0" r="20.0"></circle>
<circle cx="399.0" cy="135.0" r="8" fill="url(#hatch-T)" stroke="#ffffff" stroke-width="0.6"></circle>
<circle cx="375.0" cy="135.0" r="2.5" fill="#000000" stroke="#ffffff" stroke-width="0.8"></circle>
<circle cx="423.0" cy="135.0" r="2.5" fill="#ffffff"></circle>
<text x="399.0" y="109.0" fill="#ffffff" font-size="11" text-anchor="middle" font-family="monospace" font-weight="bold">≻</text>
<text x="399.0" y="167.0" fill="#ffffff" font-size="5" text-anchor="middle" font-family="monospace">AFWD</text>
<polygon fill="none" stroke="#ffffff" stroke-width="1.3" points="493.0,310.0 513.0,330 493.0,350.0 473.0,330"></polygon>
<circle cx="493.0" cy="330.0" r="8" fill="url(#hatch-T)" stroke="#ffffff" stroke-width="0.6"></circle>
<circle cx="469.0" cy="330.0" r="2.5" fill="#000000" stroke="#ffffff" stroke-width="0.8"></circle>
<circle cx="517.0" cy="330.0" r="2.5" fill="#ffffff"></circle>
<text x="493.0" y="304.0" fill="#ffffff" font-size="11" text-anchor="middle" font-family="monospace" font-weight="bold">∈</text>
<text x="493.0" y="362.0" fill="#ffffff" font-size="5" text-anchor="middle" font-family="monospace">FSPLIT</text>
<polygon fill="none" stroke="#ffffff" stroke-width="1.3" points="604.3,90.0 587.0,100.0 569.7,90.0 569.7,70.0 587.0,60.0 604.3,70.0"></polygon>
<circle cx="587.0" cy="80.0" r="8" fill="url(#hatch-T)" stroke="#ffffff" stroke-width="0.6"></circle>
<circle cx="563.0" cy="80.0" r="2.5" fill="#000000" stroke="#ffffff" stroke-width="0.8"></circle>
<circle cx="611.0" cy="80.0" r="2.5" fill="#ffffff"></circle>
<text x="587.0" y="54.0" fill="#ffffff" font-size="11" text-anchor="middle" font-family="monospace" font-weight="bold">⊤</text>
<text x="587.0" y="112.0" fill="#ffffff" font-size="5" text-anchor="middle" font-family="monospace">EVALT</text>
<polygon fill="none" stroke="#ffffff" stroke-width="1.3" points="681.0,310.0 701.0,330 681.0,350.0 661.0,330"></polygon>
<circle cx="681.0" cy="330.0" r="8" fill="url(#hatch-T)" stroke="#ffffff" stroke-width="0.6"></circle>
<circle cx="657.0" cy="330.0" r="2.5" fill="#000000" stroke="#ffffff" stroke-width="0.8"></circle>
<circle cx="705.0" cy="330.0" r="2.5" fill="#ffffff"></circle>
<text x="681.0" y="304.0" fill="#ffffff" font-size="11" text-anchor="middle" font-family="monospace" font-weight="bold">∈</text>
<text x="681.0" y="362.0" fill="#ffffff" font-size="5" text-anchor="middle" font-family="monospace">FSPLIT</text>
<polygon fill="none" stroke="#ffffff" stroke-width="1.3" points="792.3,80.0 775.0,90.0 757.7,80.0 757.7,60.0 775.0,50.0 792.3,60.0"></polygon>
<circle cx="775.0" cy="70.0" r="8" fill="url(#hatch-T)" stroke="#ffffff" stroke-width="0.6"></circle>
<circle cx="751.0" cy="70.0" r="2.5" fill="#000000" stroke="#ffffff" stroke-width="0.8"></circle>
<circle cx="799.0" cy="70.0" r="2.5" fill="#ffffff"></circle>
<text x="775.0" y="44.0" fill="#ffffff" font-size="11" text-anchor="middle" font-family="monospace" font-weight="bold">⊤</text>
<text x="775.0" y="102.0" fill="#ffffff" font-size="5" text-anchor="middle" font-family="monospace">EVALT</text>
<circle fill="none" stroke="#ffffff" stroke-width="1.3" cx="869.0" cy="70.0" r="20.0"></circle>
<circle cx="845.0" cy="70.0" r="2.5" fill="#000000" stroke="#ffffff" stroke-width="0.8"></circle>
<circle cx="893.0" cy="70.0" r="2.5" fill="#ffffff"></circle>
<text x="869.0" y="44.0" fill="#ffffff" font-size="11" text-anchor="middle" font-family="monospace" font-weight="bold">⋈</text>
<text x="869.0" y="102.0" fill="#ffffff" font-size="5" text-anchor="middle" font-family="monospace">CLINK</text>
<polygon fill="none" stroke="#ffffff" stroke-width="1.3" points="963.0,310.0 983.0,330 963.0,350.0 943.0,330"></polygon>
<circle cx="939.0" cy="330.0" r="2.5" fill="#000000" stroke="#ffffff" stroke-width="0.8"></circle>
<circle cx="987.0" cy="330.0" r="2.5" fill="#ffffff"></circle>
<text x="963.0" y="304.0" fill="#ffffff" font-size="11" text-anchor="middle" font-family="monospace" font-weight="bold">∈</text>
<text x="963.0" y="362.0" fill="#ffffff" font-size="5" text-anchor="middle" font-family="monospace">FSPLIT</text>
<circle fill="none" stroke="#ffffff" stroke-width="1.3" cx="1057.0" cy="70.0" r="20.0"></circle>
<circle cx="1057.0" cy="70.0" r="8" fill="url(#hatch-F)" stroke="#ffffff" stroke-width="0.6"></circle>
<circle cx="1033.0" cy="70.0" r="2.5" fill="#000000" stroke="#ffffff" stroke-width="0.8"></circle>
<circle cx="1081.0" cy="70.0" r="2.5" fill="#ffffff"></circle>
<text x="1057.0" y="44.0" fill="#ffffff" font-size="11" text-anchor="middle" font-family="monospace" font-weight="bold">≺</text>
<text x="1057.0" y="102.0" fill="#ffffff" font-size="5" text-anchor="middle" font-family="monospace">AREV</text>
<polygon fill="none" stroke="#ffffff" stroke-width="1.3" points="1168.3,80.0 1151.0,90.0 1133.7,80.0 1133.7,60.0 1151.0,50.0 1168.3,60.0"></polygon>
<circle cx="1151.0" cy="70.0" r="8" fill="url(#hatch-B)" stroke="#ffffff" stroke-width="0.6"></circle>
<circle cx="1127.0" cy="70.0" r="2.5" fill="#000000" stroke="#ffffff" stroke-width="0.8"></circle>
<circle cx="1175.0" cy="70.0" r="2.5" fill="#ffffff"></circle>
<text x="1151.0" y="44.0" fill="#ffffff" font-size="11" text-anchor="middle" font-family="monospace" font-weight="bold">⊤</text>
<text x="1151.0" y="102.0" fill="#ffffff" font-size="5" text-anchor="middle" font-family="monospace">EVALT</text>
<polygon fill="none" stroke="#ffffff" stroke-width="1.3" points="1262.3,660.0 1245.0,670.0 1227.7,660.0 1227.7,640.0 1245.0,630.0 1262.3,640.0"></polygon>
<circle cx="1245.0" cy="650.0" r="8" fill="url(#hatch-B)" stroke="#ffffff" stroke-width="0.6"></circle>
<circle cx="1221.0" cy="650.0" r="2.5" fill="#000000" stroke="#ffffff" stroke-width="0.8"></circle>
<circle cx="1269.0" cy="650.0" r="2.5" fill="#ffffff"></circle>
<text x="1245.0" y="624.0" fill="#ffffff" font-size="11" text-anchor="middle" font-family="monospace" font-weight="bold">⊥</text>
<text x="1245.0" y="682.0" fill="#ffffff" font-size="5" text-anchor="middle" font-family="monospace">EVALF</text>
<polygon fill="none" stroke="#ffffff" stroke-width="1.3" points="1356.3,660.0 1339.0,670.0 1321.7,660.0 1321.7,640.0 1339.0,630.0 1356.3,640.0"></polygon>
<circle cx="1339.0" cy="650.0" r="8" fill="url(#hatch-B)" stroke="#ffffff" stroke-width="0.6"></circle>
<circle cx="1315.0" cy="650.0" r="2.5" fill="#000000" stroke="#ffffff" stroke-width="0.8"></circle>
<circle cx="1363.0" cy="650.0" r="2.5" fill="#ffffff"></circle>
<text x="1339.0" y="624.0" fill="#ffffff" font-size="11" text-anchor="middle" font-family="monospace" font-weight="bold">⊞</text>
<text x="1339.0" y="682.0" fill="#ffffff" font-size="5" text-anchor="middle" font-family="monospace">ENGAGR</text>
<polygon fill="none" stroke="#ffffff" stroke-width="1.3" points="1433.0,310.0 1453.0,330 1433.0,350.0 1413.0,330"></polygon>
<circle cx="1433.0" cy="330.0" r="8" fill="url(#hatch-T)" stroke="#ffffff" stroke-width="0.6"></circle>
<circle cx="1409.0" cy="330.0" r="2.5" fill="#000000" stroke="#ffffff" stroke-width="0.8"></circle>
<circle cx="1457.0" cy="330.0" r="2.5" fill="#ffffff"></circle>
<text x="1433.0" y="304.0" fill="#ffffff" font-size="11" text-anchor="middle" font-family="monospace" font-weight="bold">∋</text>
<text x="1433.0" y="362.0" fill="#ffffff" font-size="5" text-anchor="middle" font-family="monospace">FFUSE</text>
<circle fill="none" stroke="#ffffff" stroke-width="1.3" cx="1527.0" cy="70.0" r="20.0"></circle>
<circle cx="1503.0" cy="70.0" r="2.5" fill="#000000" stroke="#ffffff" stroke-width="0.8"></circle>
<circle cx="1551.0" cy="70.0" r="2.5" fill="#ffffff"></circle>
<text x="1527.0" y="44.0" fill="#ffffff" font-size="11" text-anchor="middle" font-family="monospace" font-weight="bold">⋈</text>
<text x="1527.0" y="102.0" fill="#ffffff" font-size="5" text-anchor="middle" font-family="monospace">CLINK</text>
<polygon fill="none" stroke="#ffffff" stroke-width="1.3" points="1621.0,310.0 1641.0,330 1621.0,350.0 1601.0,330"></polygon>
<circle cx="1597.0" cy="330.0" r="2.5" fill="#000000" stroke="#ffffff" stroke-width="0.8"></circle>
<circle cx="1645.0" cy="330.0" r="2.5" fill="#ffffff"></circle>
<text x="1621.0" y="304.0" fill="#ffffff" font-size="11" text-anchor="middle" font-family="monospace" font-weight="bold">∋</text>
<text x="1621.0" y="362.0" fill="#ffffff" font-size="5" text-anchor="middle" font-family="monospace">FFUSE</text>
<polygon fill="none" stroke="#ffffff" stroke-width="1.3" points="1732.3,90.0 1715.0,100.0 1697.7,90.0 1697.7,70.0 1715.0,60.0 1732.3,70.0"></polygon>
<circle cx="1715.0" cy="80.0" r="8" fill="url(#hatch-T)" stroke="#ffffff" stroke-width="0.6"></circle>
<circle cx="1691.0" cy="80.0" r="2.5" fill="#000000" stroke="#ffffff" stroke-width="0.8"></circle>
<circle cx="1739.0" cy="80.0" r="2.5" fill="#ffffff"></circle>
<text x="1715.0" y="54.0" fill="#ffffff" font-size="11" text-anchor="middle" font-family="monospace" font-weight="bold">⊤</text>
<text x="1715.0" y="112.0" fill="#ffffff" font-size="5" text-anchor="middle" font-family="monospace">EVALT</text>
<polygon fill="none" stroke="#ffffff" stroke-width="1.3" points="1809.0,310.0 1829.0,330 1809.0,350.0 1789.0,330"></polygon>
<circle cx="1809.0" cy="330.0" r="8" fill="url(#hatch-T)" stroke="#ffffff" stroke-width="0.6"></circle>
<circle cx="1785.0" cy="330.0" r="2.5" fill="#000000" stroke="#ffffff" stroke-width="0.8"></circle>
<circle cx="1833.0" cy="330.0" r="2.5" fill="#ffffff"></circle>
<text x="1809.0" y="304.0" fill="#ffffff" font-size="11" text-anchor="middle" font-family="monospace" font-weight="bold">∋</text>
<text x="1809.0" y="362.0" fill="#ffffff" font-size="5" text-anchor="middle" font-family="monospace">FFUSE</text>
<circle fill="none" stroke="#ffffff" stroke-width="1.3" cx="1903.0" cy="135.0" r="20.0"></circle>
<circle cx="1903.0" cy="135.0" r="8" fill="url(#hatch-T)" stroke="#ffffff" stroke-width="0.6"></circle>
<circle cx="1879.0" cy="135.0" r="2.5" fill="#000000" stroke="#ffffff" stroke-width="0.8"></circle>
<circle cx="1927.0" cy="135.0" r="2.5" fill="#ffffff"></circle>
<text x="1903.0" y="109.0" fill="#ffffff" font-size="11" text-anchor="middle" font-family="monospace" font-weight="bold">⊙</text>
<text x="1903.0" y="167.0" fill="#ffffff" font-size="5" text-anchor="middle" font-family="monospace">IMSCRIB</text>
<polygon fill="none" stroke="#ffffff" stroke-width="1.3" points="2014.3,145.0 1997.0,155.0 1979.7,145.0 1979.7,125.0 1997.0,115.0 2014.3,125.0"></polygon>
<circle cx="1997.0" cy="135.0" r="8" fill="url(#hatch-T)" stroke="#ffffff" stroke-width="0.6"></circle>
<circle cx="1973.0" cy="135.0" r="2.5" fill="#000000" stroke="#ffffff" stroke-width="0.8"></circle>
<circle cx="2021.0" cy="135.0" r="2.5" fill="#ffffff"></circle>
<text x="1997.0" y="109.0" fill="#ffffff" font-size="11" text-anchor="middle" font-family="monospace" font-weight="bold">⊤</text>
<text x="1997.0" y="167.0" fill="#ffffff" font-size="5" text-anchor="middle" font-family="monospace">EVALT</text>
<rect fill="none" stroke="#ffffff" stroke-width="1.3" x="2071.0" y="115.0" width="40.0" height="40.0"></rect>
<circle cx="2091.0" cy="135.0" r="8" fill="url(#hatch-T)" stroke="#ffffff" stroke-width="0.6"></circle>
<circle cx="2067.0" cy="135.0" r="2.5" fill="#000000" stroke="#ffffff" stroke-width="0.8"></circle>
<circle cx="2115.0" cy="135.0" r="2.5" fill="#ffffff"></circle>
<text x="2091.0" y="109.0" fill="#ffffff" font-size="11" text-anchor="middle" font-family="monospace" font-weight="bold">◻</text>
<text x="2091.0" y="167.0" fill="#ffffff" font-size="5" text-anchor="middle" font-family="monospace">IFIX</text>
<polygon fill="none" stroke="#ffffff" stroke-width="1.3" points="2202.3,145.0 2185.0,155.0 2167.7,145.0 2167.7,125.0 2185.0,115.0 2202.3,125.0"></polygon>
<circle cx="2185.0" cy="135.0" r="8" fill="url(#hatch-T)" stroke="#ffffff" stroke-width="0.6"></circle>
<circle cx="2161.0" cy="135.0" r="2.5" fill="#000000" stroke="#ffffff" stroke-width="0.8"></circle>
<circle cx="2209.0" cy="135.0" r="2.5" fill="#ffffff"></circle>
<text x="2185.0" y="109.0" fill="#ffffff" font-size="11" text-anchor="middle" font-family="monospace" font-weight="bold">⊤</text>
<text x="2185.0" y="167.0" fill="#ffffff" font-size="5" text-anchor="middle" font-family="monospace">EVALT</text>
<polygon fill="none" stroke="#ffffff" stroke-width="1.3" points="2279.0,310.0 2299.0,330 2279.0,350.0 2259.0,330"></polygon>
<circle cx="2279.0" cy="330.0" r="8" fill="url(#hatch-T)" stroke="#ffffff" stroke-width="0.6"></circle>
<circle cx="2255.0" cy="330.0" r="2.5" fill="#000000" stroke="#ffffff" stroke-width="0.8"></circle>
<circle cx="2303.0" cy="330.0" r="2.5" fill="#ffffff"></circle>
<text x="2279.0" y="304.0" fill="#ffffff" font-size="11" text-anchor="middle" font-family="monospace" font-weight="bold">∋</text>
<text x="2279.0" y="362.0" fill="#ffffff" font-size="5" text-anchor="middle" font-family="monospace">FFUSE</text>
<circle fill="none" stroke="#ffffff" stroke-width="1.3" cx="2373.0" cy="330.0" r="20.0"></circle>
<circle cx="2373.0" cy="330.0" r="8" fill="url(#hatch-T)" stroke="#ffffff" stroke-width="0.6"></circle>
<circle cx="2349.0" cy="330.0" r="2.5" fill="#000000" stroke="#ffffff" stroke-width="0.8"></circle>
<circle cx="2397.0" cy="330.0" r="2.5" fill="#ffffff"></circle>
<text x="2373.0" y="304.0" fill="#ffffff" font-size="11" text-anchor="middle" font-family="monospace" font-weight="bold">⊣</text>
<text x="2373.0" y="362.0" fill="#ffffff" font-size="5" text-anchor="middle" font-family="monospace">TANCH</text>
<text x="14.0" y="72.0" fill="#ffffff" font-size="6" text-anchor="start" font-family="monospace" font-weight="bold">EDGES</text>
<line x1="14.0" y1="82.0" x2="36.0" y2="82.0" stroke="#ffffff" stroke-width="1.5" opacity="0.7"></line>
<text x="42.0" y="84.0" fill="#ffffff" font-size="7" text-anchor="start" font-family="monospace">⊢</text>
<line x1="14.0" y1="91.5" x2="36.0" y2="91.5" stroke="#ffffff" stroke-width="1.5" opacity="0.7" stroke-dasharray="5,2,1,2,1,2"></line>
<text x="42.0" y="93.5" fill="#ffffff" font-size="7" text-anchor="start" font-family="monospace">⊣</text>
<line x1="14.0" y1="101.0" x2="36.0" y2="101.0" stroke="#ffffff" stroke-width="2.0" opacity="0.7"></line>
<text x="42.0" y="103.0" fill="#ffffff" font-size="7" text-anchor="start" font-family="monospace">≻</text>
<line x1="14.0" y1="110.5" x2="36.0" y2="110.5" stroke="#ffffff" stroke-width="1.5" opacity="0.7" stroke-dasharray="6,4"></line>
<text x="42.0" y="112.5" fill="#ffffff" font-size="7" text-anchor="start" font-family="monospace">≺</text>
<line x1="14.0" y1="119.0" x2="36.0" y2="119.0" stroke="#ffffff" stroke-width="1.0" opacity="0.7"></line>
<line x1="14.0" y1="121.0" x2="36.0" y2="121.0" stroke="#ffffff" stroke-width="1.0" opacity="0.7"></line>
<text x="42.0" y="122.0" fill="#ffffff" font-size="7" text-anchor="start" font-family="monospace">⋈</text>
<line x1="14.0" y1="129.5" x2="36.0" y2="129.5" stroke="#ffffff" stroke-width="1.5" opacity="0.7"></line>
<text x="42.0" y="131.5" fill="#ffffff" font-size="7" text-anchor="start" font-family="monospace">⊙</text>
<line x1="14.0" y1="139.0" x2="36.0" y2="139.0" stroke="#ffffff" stroke-width="1.5" opacity="0.7"></line>
<text x="42.0" y="141.0" fill="#ffffff" font-size="7" text-anchor="start" font-family="monospace">∈</text>
<line x1="14.0" y1="148.5" x2="36.0" y2="148.5" stroke="#ffffff" stroke-width="1.5" opacity="0.7"></line>
<text x="42.0" y="150.5" fill="#ffffff" font-size="7" text-anchor="start" font-family="monospace">∋</text>
<line x1="14.0" y1="158.0" x2="36.0" y2="158.0" stroke="#ffffff" stroke-width="1.5" opacity="0.7"></line>
<text x="42.0" y="160.0" fill="#ffffff" font-size="7" text-anchor="start" font-family="monospace">⊤</text>
<line x1="14.0" y1="167.5" x2="36.0" y2="167.5" stroke="#ffffff" stroke-width="1.5" opacity="0.7"></line>
<text x="42.0" y="169.5" fill="#ffffff" font-size="7" text-anchor="start" font-family="monospace">⊥</text>
<polyline points="14.0,179.0 18.0,175.0 22.0,179.0 26.0,175.0 30.0,179.0 34.0,175.0 36.0,177.0" fill="none" stroke="#ffffff" stroke-width="1.0"></polyline>
<text x="42.0" y="179.0" fill="#ffffff" font-size="7" text-anchor="start" font-family="monospace">⊞</text>
<line x1="14.0" y1="186.5" x2="36.0" y2="186.5" stroke="#ffffff" stroke-width="1.5" opacity="0.7" stroke-dasharray="2,2"></line>
<text x="42.0" y="188.5" fill="#ffffff" font-size="7" text-anchor="start" font-family="monospace">◻</text>
<text x="14.0" y="195.0" fill="#ffffff" font-size="6" text-anchor="start" font-family="monospace" font-weight="bold">GUARD</text>
<circle cx="17" cy="206" r="2.5" fill="#000000" stroke="#ffffff" stroke-width="0.8"></circle>
<text x="24.0" y="208.0" fill="#ffffff" font-size="5" text-anchor="start" font-family="monospace">in</text>
<circle cx="17" cy="216" r="2.5" fill="#ffffff"></circle>
<text x="24.0" y="218.0" fill="#ffffff" font-size="5" text-anchor="start" font-family="monospace">out</text>
<text x="14.0" y="231.0" fill="#ffffff" font-size="6" text-anchor="start" font-family="monospace" font-weight="bold">NODES</text>
<circle fill="none" stroke="#ffffff" stroke-width="1.0" cx="18.0" cy="246.0" r="4.0"></circle>
<text x="28.0" y="248.0" fill="#ffffff" font-size="5" text-anchor="start" font-family="monospace">LOGI</text>
<polygon fill="none" stroke="#ffffff" stroke-width="1.0" points="18,254.0 22.0,258 18,262.0 14.0,258"></polygon>
<text x="28.0" y="260.0" fill="#ffffff" font-size="5" text-anchor="start" font-family="monospace">FROB</text>
<polygon fill="none" stroke="#ffffff" stroke-width="1.0" points="21.5,272.0 18.0,274.0 14.5,272.0 14.5,268.0 18.0,266.0 21.5,268.0"></polygon>
<text x="28.0" y="272.0" fill="#ffffff" font-size="5" text-anchor="start" font-family="monospace">DIAL</text>
<rect fill="none" stroke="#ffffff" stroke-width="1.0" x="14.0" y="278.0" width="8.0" height="8.0"></rect>
<text x="28.0" y="284.0" fill="#ffffff" font-size="5" text-anchor="start" font-family="monospace">LINE</text>
<text x="14.0" y="294.0" fill="#ffffff" font-size="6" text-anchor="start" font-family="monospace" font-weight="bold">PAIRS</text>
<circle cx="18" cy="306" r="5" fill="#000000" stroke="#ffffff" stroke-width="0.8"></circle>
<text x="18.0" y="309.0" fill="#ffffff" font-size="6" text-anchor="middle" font-family="monospace">1</text>
<text x="28.0" y="308.0" fill="#ffffff" font-size="5" text-anchor="start" font-family="monospace">pair</text>
<text x="14.0" y="324.0" fill="#ffffff" font-size="6" text-anchor="start" font-family="monospace" font-weight="bold">REG Δ</text>
<text x="14.0" y="336.0" fill="#ffffff" font-size="5" text-anchor="start" font-family="monospace">↑ T</text>
<text x="14.0" y="345.0" fill="#ffffff" font-size="5" text-anchor="start" font-family="monospace">↓ F</text>
<text x="14.0" y="354.0" fill="#ffffff" font-size="5" text-anchor="start" font-family="monospace">↑↓ B</text>
<text x="14.0" y="380.0" fill="#ffffff" font-size="6" text-anchor="start" font-family="monospace" font-weight="bold">SIXTEEN_3 LANES</text>
<text x="14.0" y="390.0" fill="#ffffff" font-size="5" text-anchor="start" font-family="monospace">I-lane: reg. names</text>
<text x="14.0" y="400.0" fill="#ffffff" font-size="4.5" text-anchor="start" font-family="monospace">  ≤_i (info: x⊆y)</text>
<text x="14.0" y="413.0" fill="#ffffff" font-size="5" text-anchor="start" font-family="monospace">C-lane: c|n splits</text>
<text x="14.0" y="423.0" fill="#ffffff" font-size="4.5" text-anchor="start" font-family="monospace">  ≤_c (constr.)</text>
<text x="14.0" y="436.0" fill="#ffffff" font-size="5" text-anchor="start" font-family="monospace">T,F lanes: ≤_t arms</text>
<text x="14.0" y="448.0" fill="#ffffff" font-size="6" text-anchor="start" font-family="monospace" font-weight="bold">16₃ REG KEY</text>
<text x="14.0" y="458.0" fill="#ffffff" font-size="4.5" text-anchor="start" font-family="monospace">T=proven F=refuted</text>
<text x="14.0" y="465.0" fill="#ffffff" font-size="4.5" text-anchor="start" font-family="monospace">t=accept. f=reject.</text>
<text x="14.0" y="472.0" fill="#ffffff" font-size="4.5" text-anchor="start" font-family="monospace">N=∅ A=full(TtFf)</text>
<path d="M 1925.2,144.2 L 1925.2,10.0 L 2350.8,10.0 L 2350.8,328.8" fill="none" stroke="#ffffff" stroke-width="1.2"></path>
<polygon points="2350.8,320.8 2347.6,312.8 2354.0,312.8" fill="#ffffff"></polygon>
</svg>