<svg xmlns="http://www.w3.org/2000/svg" viewBox="0 0 128.0 884.8" width="128.0" height="884.8">
<rect width="100%" height="100%" fill="white"/>
<defs>
<mask id="m0_0"><rect width="100%" height="100%" fill="white"/><circle cx="52.0" cy="106.4" r="3.5" fill="black"/></mask>
<mask id="m0_1"><rect width="100%" height="100%" fill="white"/><circle cx="76.0" cy="138.4" r="3.5" fill="black"/></mask>
<mask id="m0_2"><rect width="100%" height="100%" fill="white"/><circle cx="76.0" cy="170.4" r="3.5" fill="black"/></mask>
<mask id="m0_3"><rect width="100%" height="100%" fill="white"/><circle cx="52.0" cy="202.4" r="3.5" fill="black"/></mask>
<mask id="m0_4"><rect width="100%" height="100%" fill="white"/><circle cx="76.0" cy="234.4" r="3.5" fill="black"/></mask>
<mask id="m0_5"><rect width="100%" height="100%" fill="white"/><circle cx="76.0" cy="266.4" r="3.5" fill="black"/></mask>
<mask id="m0_6"><rect width="100%" height="100%" fill="white"/><circle cx="52.0" cy="298.4" r="3.5" fill="black"/></mask>
<mask id="m0_7"><rect width="100%" height="100%" fill="white"/><circle cx="52.0" cy="330.4" r="3.5" fill="black"/></mask>
<mask id="m0_8"><rect width="100%" height="100%" fill="white"/><circle cx="76.0" cy="362.4" r="3.5" fill="black"/></mask>
<mask id="m0_9"><rect width="100%" height="100%" fill="white"/><circle cx="52.0" cy="394.4" r="3.5" fill="black"/></mask>
<mask id="m0_10"><rect width="100%" height="100%" fill="white"/><circle cx="76.0" cy="426.4" r="3.5" fill="black"/></mask>
<mask id="m0_11"><rect width="100%" height="100%" fill="white"/><circle cx="76.0" cy="458.4" r="3.5" fill="black"/></mask>
<mask id="m0_12"><rect width="100%" height="100%" fill="white"/><circle cx="76.0" cy="490.4" r="3.5" fill="black"/></mask>
<mask id="m0_13"><rect width="100%" height="100%" fill="white"/><circle cx="52.0" cy="522.4" r="3.5" fill="black"/></mask>
<mask id="m0_14"><rect width="100%" height="100%" fill="white"/><circle cx="76.0" cy="554.4" r="3.5" fill="black"/></mask>
<mask id="m0_15"><rect width="100%" height="100%" fill="white"/><circle cx="52.0" cy="586.4" r="3.5" fill="black"/></mask>
<mask id="m0_16"><rect width="100%" height="100%" fill="white"/><circle cx="52.0" cy="618.4" r="3.5" fill="black"/></mask>
<mask id="m0_17"><rect width="100%" height="100%" fill="white"/><circle cx="76.0" cy="650.4" r="3.5" fill="black"/></mask>
<mask id="m0_18"><rect width="100%" height="100%" fill="white"/><circle cx="52.0" cy="682.4" r="3.5" fill="black"/></mask>
<mask id="m0_19"><rect width="100%" height="100%" fill="white"/><circle cx="76.0" cy="714.4" r="3.5" fill="black"/></mask>
<mask id="m0_20"><rect width="100%" height="100%" fill="white"/><circle cx="52.0" cy="746.4" r="3.5" fill="black"/></mask>
<mask id="m0_21"><rect width="100%" height="100%" fill="white"/><circle cx="76.0" cy="778.4" r="3.5" fill="black"/></mask>
</defs>
<path d="M 64.0 90.4 C 64.0 106.4 40.0 106.4 40.0 122.4" mask="url(#m0_0)" stroke="#377EB8" stroke-width="3.0" fill="none" stroke-linecap="round"/>
<path d="M 88.0 90.4 L 88.0 122.4" stroke="#4DAF4A" stroke-width="3.0" fill="none" stroke-linecap="round"/>
<path d="M 88.0 122.4 C 88.0 138.4 64.0 138.4 64.0 154.4" mask="url(#m0_1)" stroke="#4DAF4A" stroke-width="3.0" fill="none" stroke-linecap="round"/>
<path d="M 40.0 122.4 L 40.0 154.4" stroke="#377EB8" stroke-width="3.0" fill="none" stroke-linecap="round"/>
<path d="M 88.0 154.4 C 88.0 170.4 64.0 170.4 64.0 186.4" mask="url(#m0_2)" stroke="#E41A1C" stroke-width="3.0" fill="none" stroke-linecap="round"/>
<path d="M 40.0 154.4 L 40.0 186.4" stroke="#377EB8" stroke-width="3.0" fill="none" stroke-linecap="round"/>
<path d="M 64.0 186.4 C 64.0 202.4 40.0 202.4 40.0 218.4" mask="url(#m0_3)" stroke="#E41A1C" stroke-width="3.0" fill="none" stroke-linecap="round"/>
<path d="M 88.0 186.4 L 88.0 218.4" stroke="#4DAF4A" stroke-width="3.0" fill="none" stroke-linecap="round"/>
<path d="M 88.0 218.4 C 88.0 234.4 64.0 234.4 64.0 250.4" mask="url(#m0_4)" stroke="#4DAF4A" stroke-width="3.0" fill="none" stroke-linecap="round"/>
<path d="M 40.0 218.4 L 40.0 250.4" stroke="#E41A1C" stroke-width="3.0" fill="none" stroke-linecap="round"/>
<path d="M 88.0 250.4 C 88.0 266.4 64.0 266.4 64.0 282.4" mask="url(#m0_5)" stroke="#377EB8" stroke-width="3.0" fill="none" stroke-linecap="round"/>
<path d="M 40.0 250.4 L 40.0 282.4" stroke="#E41A1C" stroke-width="3.0" fill="none" stroke-linecap="round"/>
<path d="M 64.0 282.4 C 64.0 298.4 40.0 298.4 40.0 314.4" mask="url(#m0_6)" stroke="#377EB8" stroke-width="3.0" fill="none" stroke-linecap="round"/>
<path d="M 88.0 282.4 L 88.0 314.4" stroke="#4DAF4A" stroke-width="3.0" fill="none" stroke-linecap="round"/>
<path d="M 64.0 314.4 C 64.0 330.4 40.0 330.4 40.0 346.4" mask="url(#m0_7)" stroke="#E41A1C" stroke-width="3.0" fill="none" stroke-linecap="round"/>
<path d="M 88.0 314.4 L 88.0 346.4" stroke="#4DAF4A" stroke-width="3.0" fill="none" stroke-linecap="round"/>
<path d="M 88.0 346.4 C 88.0 362.4 64.0 362.4 64.0 378.4" mask="url(#m0_8)" stroke="#4DAF4A" stroke-width="3.0" fill="none" stroke-linecap="round"/>
<path d="M 40.0 346.4 L 40.0 378.4" stroke="#E41A1C" stroke-width="3.0" fill="none" stroke-linecap="round"/>
<path d="M 64.0 378.4 C 64.0 394.4 40.0 394.4 40.0 410.4" mask="url(#m0_9)" stroke="#4DAF4A" stroke-width="3.0" fill="none" stroke-linecap="round"/>
<path d="M 88.0 378.4 L 88.0 410.4" stroke="#377EB8" stroke-width="3.0" fill="none" stroke-linecap="round"/>
<path d="M 88.0 410.4 C 88.0 426.4 64.0 426.4 64.0 442.4" mask="url(#m0_10)" stroke="#377EB8" stroke-width="3.0" fill="none" stroke-linecap="round"/>
<path d="M 40.0 410.4 L 40.0 442.4" stroke="#4DAF4A" stroke-width="3.0" fill="none" stroke-linecap="round"/>
<path d="M 88.0 442.4 C 88.0 458.4 64.0 458.4 64.0 474.4" mask="url(#m0_11)" stroke="#E41A1C" stroke-width="3.0" fill="none" stroke-linecap="round"/>
<path d="M 40.0 442.4 L 40.0 474.4" stroke="#4DAF4A" stroke-width="3.0" fill="none" stroke-linecap="round"/>
<path d="M 88.0 474.4 C 88.0 490.4 64.0 490.4 64.0 506.4" mask="url(#m0_12)" stroke="#377EB8" stroke-width="3.0" fill="none" stroke-linecap="round"/>
<path d="M 40.0 474.4 L 40.0 506.4" stroke="#4DAF4A" stroke-width="3.0" fill="none" stroke-linecap="round"/>
<path d="M 64.0 506.4 C 64.0 522.4 40.0 522.4 40.0 538.4" mask="url(#m0_13)" stroke="#377EB8" stroke-width="3.0" fill="none" stroke-linecap="round"/>
<path d="M 88.0 506.4 L 88.0 538.4" stroke="#E41A1C" stroke-width="3.0" fill="none" stroke-linecap="round"/>
<path d="M 88.0 538.4 C 88.0 554.4 64.0 554.4 64.0 570.4" mask="url(#m0_14)" stroke="#E41A1C" stroke-width="3.0" fill="none" stroke-linecap="round"/>
<path d="M 40.0 538.4 L 40.0 570.4" stroke="#377EB8" stroke-width="3.0" fill="none" stroke-linecap="round"/>
<path d="M 64.0 570.4 C 64.0 586.4 40.0 586.4 40.0 602.4" mask="url(#m0_15)" stroke="#E41A1C" stroke-width="3.0" fill="none" stroke-linecap="round"/>
<path d="M 88.0 570.4 L 88.0 602.4" stroke="#4DAF4A" stroke-width="3.0" fill="none" stroke-linecap="round"/>
<path d="M 64.0 602.4 C 64.0 618.4 40.0 618.4 40.0 634.4" mask="url(#m0_16)" stroke="#377EB8" stroke-width="3.0" fill="none" stroke-linecap="round"/>
<path d="M 88.0 602.4 L 88.0 634.4" stroke="#4DAF4A" stroke-width="3.0" fill="none" stroke-linecap="round"/>
<path d="M 88.0 634.4 C 88.0 650.4 64.0 650.4 64.0 666.4" mask="url(#m0_17)" stroke="#4DAF4A" stroke-width="3.0" fill="none" stroke-linecap="round"/>
<path d="M 40.0 634.4 L 40.0 666.4" stroke="#377EB8" stroke-width="3.0" fill="none" stroke-linecap="round"/>
<path d="M 64.0 666.4 C 64.0 682.4 40.0 682.4 40.0 698.4" mask="url(#m0_18)" stroke="#4DAF4A" stroke-width="3.0" fill="none" stroke-linecap="round"/>
<path d="M 88.0 666.4 L 88.0 698.4" stroke="#E41A1C" stroke-width="3.0" fill="none" stroke-linecap="round"/>
<path d="M 88.0 698.4 C 88.0 714.4 64.0 714.4 64.0 730.4" mask="url(#m0_19)" stroke="#E41A1C" stroke-width="3.0" fill="none" stroke-linecap="round"/>
<path d="M 40.0 698.4 L 40.0 730.4" stroke="#4DAF4A" stroke-width="3.0" fill="none" stroke-linecap="round"/>
<path d="M 64.0 730.4 C 64.0 746.4 40.0 746.4 40.0 762.4" mask="url(#m0_20)" stroke="#E41A1C" stroke-width="3.0" fill="none" stroke-linecap="round"/>
<path d="M 88.0 730.4 L 88.0 762.4" stroke="#377EB8" stroke-width="3.0" fill="none" stroke-linecap="round"/>
<path d="M 88.0 762.4 C 88.0 778.4 64.0 778.4 64.0 794.4" mask="url(#m0_21)" stroke="#377EB8" stroke-width="3.0" fill="none" stroke-linecap="round"/>
<path d="M 40.0 762.4 L 40.0 794.4" stroke="#E41A1C" stroke-width="3.0" fill="none" stroke-linecap="round"/>
<path d="M 40.0 794.4 C 40.0 844.8 40.0 844.8 40.0 794.4" stroke="#E41A1C" stroke-width="3.0" fill="none" stroke-linecap="round"/>
<path d="M 64.0 794.4 C 64.0 844.8 64.0 844.8 64.0 794.4" stroke="#377EB8" stroke-width="3.0" fill="none" stroke-linecap="round"/>
<path d="M 88.0 794.4 C 88.0 844.8 88.0 844.8 88.0 794.4" stroke="#4DAF4A" stroke-width="3.0" fill="none" stroke-linecap="round"/>
<path d="M 40.0 90.4 C 40.0 106.4 64.0 106.4 64.0 122.4" stroke="#E41A1C" stroke-width="3.0" fill="none" stroke-linecap="round"/>
<path d="M 64.0 122.4 C 64.0 138.4 88.0 138.4 88.0 154.4" stroke="#E41A1C" stroke-width="3.0" fill="none" stroke-linecap="round"/>
<path d="M 64.0 154.4 C 64.0 170.4 88.0 170.4 88.0 186.4" stroke="#4DAF4A" stroke-width="3.0" fill="none" stroke-linecap="round"/>
<path d="M 40.0 186.4 C 40.0 202.4 64.0 202.4 64.0 218.4" stroke="#377EB8" stroke-width="3.0" fill="none" stroke-linecap="round"/>
<path d="M 64.0 218.4 C 64.0 234.4 88.0 234.4 88.0 250.4" stroke="#377EB8" stroke-width="3.0" fill="none" stroke-linecap="round"/>
<path d="M 64.0 250.4 C 64.0 266.4 88.0 266.4 88.0 282.4" stroke="#4DAF4A" stroke-width="3.0" fill="none" stroke-linecap="round"/>
<path d="M 40.0 282.4 C 40.0 298.4 64.0 298.4 64.0 314.4" stroke="#E41A1C" stroke-width="3.0" fill="none" stroke-linecap="round"/>
<path d="M 40.0 314.4 C 40.0 330.4 64.0 330.4 64.0 346.4" stroke="#377EB8" stroke-width="3.0" fill="none" stroke-linecap="round"/>
<path d="M 64.0 346.4 C 64.0 362.4 88.0 362.4 88.0 378.4" stroke="#377EB8" stroke-width="3.0" fill="none" stroke-linecap="round"/>
<path d="M 40.0 378.4 C 40.0 394.4 64.0 394.4 64.0 410.4" stroke="#E41A1C" stroke-width="3.0" fill="none" stroke-linecap="round"/>
<path d="M 64.0 410.4 C 64.0 426.4 88.0 426.4 88.0 442.4" stroke="#E41A1C" stroke-width="3.0" fill="none" stroke-linecap="round"/>
<path d="M 64.0 442.4 C 64.0 458.4 88.0 458.4 88.0 474.4" stroke="#377EB8" stroke-width="3.0" fill="none" stroke-linecap="round"/>
<path d="M 64.0 474.4 C 64.0 490.4 88.0 490.4 88.0 506.4" stroke="#E41A1C" stroke-width="3.0" fill="none" stroke-linecap="round"/>
<path d="M 40.0 506.4 C 40.0 522.4 64.0 522.4 64.0 538.4" stroke="#4DAF4A" stroke-width="3.0" fill="none" stroke-linecap="round"/>
<path d="M 64.0 538.4 C 64.0 554.4 88.0 554.4 88.0 570.4" stroke="#4DAF4A" stroke-width="3.0" fill="none" stroke-linecap="round"/>
<path d="M 40.0 570.4 C 40.0 586.4 64.0 586.4 64.0 602.4" stroke="#377EB8" stroke-width="3.0" fill="none" stroke-linecap="round"/>
<path d="M 40.0 602.4 C 40.0 618.4 64.0 618.4 64.0 634.4" stroke="#E41A1C" stroke-width="3.0" fill="none" stroke-linecap="round"/>
<path d="M 64.0 634.4 C 64.0 650.4 88.0 650.4 88.0 666.4" stroke="#E41A1C" stroke-width="3.0" fill="none" stroke-linecap="round"/>
<path d="M 40.0 666.4 C 40.0 682.4 64.0 682.4 64.0 698.4" stroke="#377EB8" stroke-width="3.0" fill="none" stroke-linecap="round"/>
<path d="M 64.0 698.4 C 64.0 714.4 88.0 714.4 88.0 730.4" stroke="#377EB8" stroke-width="3.0" fill="none" stroke-linecap="round"/>
<path d="M 40.0 730.4 C 40.0 746.4 64.0 746.4 64.0 762.4" stroke="#4DAF4A" stroke-width="3.0" fill="none" stroke-linecap="round"/>
<path d="M 64.0 762.4 C 64.0 778.4 88.0 778.4 88.0 794.4" stroke="#4DAF4A" stroke-width="3.0" fill="none" stroke-linecap="round"/>
<text x="70.0" y="104.4" font-family="monospace" font-size="7" fill="#444">1</text>
<text x="94.0" y="136.4" font-family="monospace" font-size="7" fill="#444">2</text>
<text x="94.0" y="168.4" font-family="monospace" font-size="7" fill="#444">2</text>
<text x="70.0" y="200.4" font-family="monospace" font-size="7" fill="#444">1</text>
<text x="94.0" y="232.4" font-family="monospace" font-size="7" fill="#444">2</text>
<text x="94.0" y="264.4" font-family="monospace" font-size="7" fill="#444">2</text>
<text x="70.0" y="296.4" font-family="monospace" font-size="7" fill="#444">1</text>
<text x="70.0" y="328.4" font-family="monospace" font-size="7" fill="#444">1</text>
<text x="94.0" y="360.4" font-family="monospace" font-size="7" fill="#444">2</text>
<text x="70.0" y="392.4" font-family="monospace" font-size="7" fill="#444">1</text>
<text x="94.0" y="424.4" font-family="monospace" font-size="7" fill="#444">2</text>
<text x="94.0" y="456.4" font-family="monospace" font-size="7" fill="#444">2</text>
<text x="94.0" y="488.4" font-family="monospace" font-size="7" fill="#444">2</text>
<text x="70.0" y="520.4" font-family="monospace" font-size="7" fill="#444">1</text>
<text x="94.0" y="552.4" font-family="monospace" font-size="7" fill="#444">2</text>
<text x="70.0" y="584.4" font-family="monospace" font-size="7" fill="#444">1</text>
<text x="70.0" y="616.4" font-family="monospace" font-size="7" fill="#444">1</text>
<text x="94.0" y="648.4" font-family="monospace" font-size="7" fill="#444">2</text>
<text x="70.0" y="680.4" font-family="monospace" font-size="7" fill="#444">1</text>
<text x="94.0" y="712.4" font-family="monospace" font-size="7" fill="#444">2</text>
<text x="70.0" y="744.4" font-family="monospace" font-size="7" fill="#444">1</text>
<text x="94.0" y="776.4" font-family="monospace" font-size="7" fill="#444">2</text>
<circle cx="40.0" cy="90.4" r="9" fill="white" stroke="#aaa" stroke-width="0.6"/>
<text x="40.0" y="94.4" font-family="sans-serif" font-size="11" fill="#222" text-anchor="middle">1</text>
<circle cx="64.0" cy="90.4" r="9" fill="white" stroke="#aaa" stroke-width="0.6"/>
<text x="64.0" y="94.4" font-family="sans-serif" font-size="11" fill="#222" text-anchor="middle">2</text>
<circle cx="88.0" cy="90.4" r="9" fill="white" stroke="#aaa" stroke-width="0.6"/>
<text x="88.0" y="94.4" font-family="sans-serif" font-size="11" fill="#222" text-anchor="middle">3</text>
</svg>